<?xml version="1.0" encoding="UTF-8" standalone="no"?>
<svg
   version="1.0"
   width="199.76164pt"
   height="64.099998pt"
   viewBox="0 0 199.76164 64.099998"
   preserveAspectRatio="xMidYMid"
   id="svg503"
   sodipodi:docname="normal-logo.svg"
   inkscape:version="1.2.2 (732a01da63, 2022-12-09)"
   xmlns:inkscape="http://www.inkscape.org/namespaces/inkscape"
   xmlns:sodipodi="http://sodipodi.sourceforge.net/DTD/sodipodi-0.dtd"
   xmlns="http://www.w3.org/2000/svg"
   xmlns:svg="http://www.w3.org/2000/svg">
  <defs
     id="defs507" />
  <sodipodi:namedview
     id="namedview505"
     pagecolor="#ffffff"
     bordercolor="#000000"
     borderopacity="0.25"
     inkscape:showpageshadow="2"
     inkscape:pageopacity="0.0"
     inkscape:pagecheckerboard="0"
     inkscape:deskcolor="#d1d1d1"
     inkscape:document-units="pt"
     showgrid="false"
     inkscape:zoom="1.7833333"
     inkscape:cx="81.588787"
     inkscape:cy="111.02804"
     inkscape:window-width="1366"
     inkscape:window-height="715"
     inkscape:window-x="-6"
     inkscape:window-y="-6"
     inkscape:window-maximized="1"
     inkscape:current-layer="svg503" />
  <g
     transform="matrix(0.1,0,0,-0.1,-13.238365,156.1)"
     fill="#000000"
     stroke="none"
     id="g501"
     style="fill:#29367e;fill-opacity:1">
    <path
       d="M 268,1258 C 198,1091 138,947 134,937 c -6,-16 1,-18 86,-15 l 93,3 20,53 20,52 h 126 127 l 23,-55 23,-55 h 94 c 76,0 92,3 88,14 -3,8 -63,151 -134,318 l -128,303 -89,3 -88,3 z m 282,-84 c 0,-2 -31,-4 -70,-4 -38,0 -70,1 -70,3 0,2 12,32 26,68 15,35 31,75 36,89 9,23 12,17 44,-63 19,-49 34,-91 34,-93 z"
       id="path489"
       style="fill:#29367e;fill-opacity:1" />
    <path
       d="M 850,1240 V 920 h 90 90 v 181 181 l 80,-121 c 44,-67 82,-121 84,-121 2,0 39,54 82,120 l 79,121 3,-181 2,-180 h 90 90 v 320 320 h -95 -95 l -37,-61 c -21,-33 -56,-89 -79,-125 l -40,-65 -75,123 -75,123 -97,3 -97,3 z"
       id="path491"
       style="fill:#29367e;fill-opacity:1" />
    <path
       d="m 1560,1485 v -74 l 98,-3 97,-3 3,-242 2,-243 h 85 85 l 2,243 3,242 98,3 97,3 v 74 75 h -285 -285 z"
       id="path493"
       style="fill:#29367e;fill-opacity:1" />
  </g>
</svg>
